<svg width="49" height="48" viewBox="0 0 49 48" fill="none" xmlns="http://www.w3.org/2000/svg">
<g clip-path="url(#clip0_993_705)">
<path d="M44.1506 22.2822C43.5751 22.2864 43.005 22.3962 42.4678 22.6064L36.7275 17.8217C36.8687 17.3001 36.9692 16.7589 36.9692 16.1886C36.9692 12.8103 34.3026 10.095 30.9848 10.095C27.667 10.095 25.0003 12.8103 25.0003 16.1886C25.0003 17.1538 25.2397 18.0532 25.6275 18.8625L18.664 27.2424C18.3852 27.1893 18.1025 27.1607 17.819 27.1571C17.3905 27.1571 16.9859 27.2302 16.5934 27.3374L10.4581 21.0903C10.5658 20.693 10.6376 20.281 10.6376 19.8447C10.6376 17.1441 8.50238 14.9699 5.85006 14.9699C3.19775 14.9699 1.0625 17.1441 1.0625 19.8447C1.0625 22.5454 3.19775 24.7196 5.85006 24.7196C6.27855 24.7196 6.6831 24.6465 7.07568 24.5393L13.2109 30.7864C13.0959 31.1914 13.0355 31.6104 13.0314 32.032C13.0314 34.7327 15.1667 36.9069 17.819 36.9069C20.4713 36.9069 22.6065 34.7327 22.6065 32.032C22.6065 31.4543 22.4916 30.9107 22.3121 30.3964L29.2852 22.0068C29.8286 22.1676 30.3911 22.2822 30.9848 22.2822C31.9295 22.2769 32.8593 22.0421 33.6969 21.5973L39.4396 26.382C39.3946 26.638 39.369 26.8971 39.363 27.1571C39.363 29.8578 41.4983 32.032 44.1506 32.032C46.8029 32.032 48.9381 29.8578 48.9381 27.1571C48.9381 24.4564 46.8029 22.2822 44.1506 22.2822Z" fill="#00A0C1"/>
</g>
<defs>
<clipPath id="clip0_993_705">
<rect width="48" height="48" fill="white" transform="translate(0.5)"/>
</clipPath>
</defs>
</svg>
