<svg width="23" height="22" viewBox="0 0 23 22" fill="none" xmlns="http://www.w3.org/2000/svg">
<path d="M20.6447 8.41256C20.5871 8.24274 20.481 8.09353 20.3395 7.98335C20.198 7.87316 20.0273 7.80681 19.8486 7.79251L14.6194 7.377L12.3566 2.36798C12.2845 2.20665 12.1673 2.06963 12.0191 1.97344C11.8709 1.87726 11.698 1.82602 11.5213 1.82593C11.3446 1.82583 11.1717 1.87687 11.0233 1.9729C10.875 2.06892 10.7576 2.20582 10.6854 2.36707L8.42258 7.377L3.19343 7.79251C3.01774 7.80642 2.84978 7.87066 2.70964 7.97754C2.5695 8.08442 2.46312 8.2294 2.40323 8.39516C2.34333 8.56091 2.33246 8.74041 2.3719 8.91218C2.41135 9.08395 2.49945 9.24072 2.62566 9.36373L6.48997 13.1308L5.12329 19.0488C5.08179 19.2279 5.09509 19.4154 5.16147 19.5869C5.22784 19.7584 5.34422 19.9059 5.49551 20.0105C5.64679 20.115 5.826 20.1716 6.00987 20.173C6.19375 20.1744 6.3738 20.1205 6.52666 20.0183L11.521 16.6888L16.5153 20.0183C16.6716 20.1221 16.8558 20.1755 17.0433 20.1713C17.2308 20.1672 17.4126 20.1058 17.5641 19.9953C17.7156 19.8848 17.8297 19.7306 17.891 19.5533C17.9522 19.3761 17.9578 19.1843 17.9068 19.0039L16.2292 13.1336L20.3897 9.38941C20.6622 9.14359 20.7621 8.76019 20.6447 8.41256V8.41256Z" fill="#F3CD03"/>
</svg>
