<svg width="20" height="22" viewBox="0 0 20 22" fill="none" xmlns="http://www.w3.org/2000/svg">
<path d="M20.1301 8.41939C20.0724 8.24958 19.9663 8.10037 19.8248 7.99018C19.6833 7.87999 19.5127 7.81365 19.3339 7.79934L14.1048 7.38383L11.842 2.37482C11.7699 2.21349 11.6527 2.07646 11.5045 1.98028C11.3562 1.88409 11.1833 1.83286 11.0066 1.83276C10.83 1.83267 10.657 1.88371 10.5087 1.97973C10.3604 2.07575 10.243 2.21265 10.1707 2.3739L7.90793 7.38383L2.67878 7.79934C2.50309 7.81326 2.33513 7.8775 2.19499 7.98438C2.05485 8.09125 1.94847 8.23624 1.88858 8.40199C1.82868 8.56774 1.81781 8.74724 1.85726 8.91901C1.8967 9.09078 1.9848 9.24755 2.11101 9.37056L5.97532 13.1376L4.60864 19.0556C4.56714 19.2348 4.58044 19.4222 4.64682 19.5937C4.71319 19.7652 4.82957 19.9128 4.98086 20.0173C5.13214 20.1218 5.31135 20.1785 5.49523 20.1799C5.6791 20.1813 5.85915 20.1274 6.01201 20.0252L11.0064 16.6956L16.0007 20.0252C16.1569 20.1289 16.3412 20.1823 16.5287 20.1782C16.7162 20.1741 16.8979 20.1126 17.0495 20.0022C17.201 19.8917 17.3151 19.7374 17.3763 19.5602C17.4376 19.3829 17.4431 19.1912 17.3921 19.0107L15.7145 13.1404L19.8751 9.39625C20.1475 9.15043 20.2475 8.76702 20.1301 8.41939V8.41939Z" fill="url(#paint0_linear_1437_4)"/>
<path d="M5.97721 13.1372L4.61054 19.0552C4.56822 19.2344 4.58092 19.4222 4.64699 19.594C4.71306 19.7659 4.82943 19.9139 4.98089 20.0186C5.13235 20.1233 5.31186 20.1799 5.49599 20.181C5.68012 20.1821 5.86029 20.1276 6.01299 20.0247L11.0073 16.6951L16.0017 20.0247C16.1579 20.1284 16.3422 20.1818 16.5297 20.1777C16.7171 20.1736 16.8989 20.1122 17.0504 20.0017C17.202 19.8912 17.316 19.737 17.3773 19.5597C17.4386 19.3825 17.4441 19.1907 17.3931 19.0102L15.7155 13.1399L19.8761 9.39579C20.0093 9.2758 20.1045 9.11939 20.1498 8.94589C20.1951 8.7724 20.1885 8.58943 20.131 8.41961C20.0734 8.2498 19.9673 8.10058 19.8258 7.99042C19.6843 7.88026 19.5136 7.81399 19.3349 7.7998L14.1057 7.38338L11.8429 2.37436C11.7708 2.21307 11.6535 2.07611 11.5052 1.98C11.3569 1.8839 11.184 1.83276 11.0073 1.83276C10.8306 1.83276 10.6577 1.8839 10.5094 1.98C10.3612 2.07611 10.2439 2.21307 10.1717 2.37436L7.90891 7.38338L2.67976 7.79888C2.50407 7.8128 2.3361 7.87704 2.19597 7.98392C2.05583 8.09079 1.94945 8.23578 1.88955 8.40153C1.82966 8.56728 1.81878 8.74678 1.85823 8.91855C1.89768 9.09032 1.98578 9.24709 2.11199 9.3701L5.97721 13.1372V13.1372ZM8.59408 9.16923C8.75781 9.15633 8.91504 9.09963 9.04931 9.00506C9.18358 8.91049 9.28993 8.78154 9.35722 8.63173L11.0073 4.98022L12.6574 8.63173C12.7247 8.78154 12.8311 8.91049 12.9653 9.00506C13.0996 9.09963 13.2568 9.15633 13.4206 9.16923L17.0638 9.45816L14.0636 12.1585C13.8031 12.3933 13.6994 12.7547 13.7948 13.0922L14.9441 17.1143L11.5173 14.8295C11.3669 14.7285 11.1898 14.6746 11.0087 14.6746C10.8276 14.6746 10.6505 14.7285 10.5001 14.8295L6.91921 17.217L7.88231 13.0473C7.91762 12.8939 7.91288 12.7341 7.86855 12.5831C7.82421 12.4321 7.74177 12.295 7.62915 12.1851L4.8426 9.46825L8.59408 9.16923V9.16923Z" fill="#F3CD03"/>
<defs>
<linearGradient id="paint0_linear_1437_4" x1="1.83398" y1="11.0063" x2="20.1787" y2="11.0063" gradientUnits="userSpaceOnUse">
<stop offset="0.500882" stop-color="#F3CD03"/>
<stop offset="0.506289" stop-color="white"/>
</linearGradient>
</defs>
</svg>
