<svg width="23" height="22" viewBox="0 0 23 22" fill="none" xmlns="http://www.w3.org/2000/svg">
<path d="M6.5319 13.1308L5.16522 19.0488C5.1229 19.228 5.13561 19.4158 5.20168 19.5877C5.26775 19.7596 5.38411 19.9075 5.53557 20.0122C5.68703 20.1169 5.86655 20.1735 6.05068 20.1746C6.2348 20.1757 6.41498 20.1212 6.56767 20.0183L11.562 16.6888L16.5564 20.0183C16.7126 20.1221 16.8968 20.1755 17.0843 20.1714C17.2718 20.1673 17.4536 20.1058 17.6051 19.9953C17.7567 19.8849 17.8707 19.7306 17.932 19.5534C17.9933 19.3761 17.9988 19.1844 17.9478 19.0039L16.2702 13.1336L20.4308 9.38944C20.564 9.26946 20.6592 9.11304 20.7045 8.93955C20.7498 8.76605 20.7432 8.58308 20.6856 8.41327C20.6281 8.24345 20.522 8.09424 20.3805 7.98408C20.239 7.87392 20.0683 7.80764 19.8896 7.79345L14.6604 7.37703L12.3976 2.36801C12.3255 2.20672 12.2082 2.06976 12.0599 1.97366C11.9116 1.87755 11.7387 1.82642 11.562 1.82642C11.3853 1.82642 11.2124 1.87755 11.0641 1.97366C10.9159 2.06976 10.7986 2.20672 10.7264 2.36801L8.4636 7.37703L3.23445 7.79254C3.05875 7.80645 2.89079 7.87069 2.75065 7.97757C2.61052 8.08445 2.50414 8.22943 2.44424 8.39518C2.38435 8.56094 2.37347 8.74044 2.41292 8.91221C2.45237 9.08398 2.54047 9.24074 2.66668 9.36376L6.5319 13.1308ZM9.14877 9.16288C9.31249 9.14998 9.46973 9.09328 9.604 8.99871C9.73827 8.90414 9.84462 8.77519 9.91191 8.62538L11.562 4.97387L13.2121 8.62538C13.2794 8.77519 13.3858 8.90414 13.52 8.99871C13.6543 9.09328 13.8115 9.14998 13.9753 9.16288L17.6185 9.45181L14.6182 12.1521C14.3577 12.387 14.2541 12.7484 14.3495 13.0859L15.4988 17.108L12.072 14.8231C11.9216 14.7222 11.7445 14.6683 11.5634 14.6683C11.3822 14.6683 11.2052 14.7222 11.0548 14.8231L7.4739 17.2107L8.437 13.0409C8.47231 12.8876 8.46757 12.7277 8.42323 12.5767C8.3789 12.4257 8.29646 12.2887 8.18384 12.1787L5.39728 9.4619L9.14877 9.16288Z" fill="#F3CD03"/>
</svg>
