<svg width="20" height="20" viewBox="0 0 20 20" fill="none" xmlns="http://www.w3.org/2000/svg">
<path fill-rule="evenodd" clip-rule="evenodd" d="M11.4601 12.3185L15.7639 16.6223C15.9151 16.7737 16.0001 16.979 16 17.193C15.9999 17.407 15.9148 17.6122 15.7635 17.7635C15.6121 17.9147 15.4068 17.9997 15.1928 17.9996C14.9788 17.9995 14.7736 17.9144 14.6223 17.7631L10.3185 13.4593C9.03194 14.4558 7.41407 14.9247 5.79403 14.7707C4.17398 14.6167 2.67346 13.8513 1.59771 12.6302C0.521957 11.4091 -0.0482098 9.82408 0.00319691 8.19754C0.0546036 6.57101 0.723722 5.02514 1.87443 3.87443C3.02514 2.72372 4.57101 2.0546 6.19754 2.0032C7.82408 1.95179 9.40911 2.52196 10.6302 3.59771C11.8513 4.67346 12.6167 6.17398 12.7707 7.79403C12.9247 9.41407 12.4558 11.0319 11.4593 12.3185H11.4601ZM6.4003 13.1993C7.67328 13.1993 8.89412 12.6936 9.79425 11.7935C10.6944 10.8933 11.2001 9.67248 11.2001 8.3995C11.2001 7.12652 10.6944 5.90568 9.79425 5.00554C8.89412 4.10541 7.67328 3.59972 6.4003 3.59972C5.12732 3.59972 3.90648 4.10541 3.00634 5.00554C2.10621 5.90568 1.60052 7.12652 1.60052 8.3995C1.60052 9.67248 2.10621 10.8933 3.00634 11.7935C3.90648 12.6936 5.12732 13.1993 6.4003 13.1993Z" fill="white"/>
</svg>
